# Aspose.3D Wavefront OBJ Exporter
# Copyright 2004-2022 Aspose Pty Ltd.
# File created: 07/12/2022 19:32:06


#
# object obj_54522384
#

v -12.1841000000000008 -9.05552E-17 1.47887900000000008
v -11.80213 -1.625381E-16 2.65444900000000008
v -11.80213 1.5 2.65444900000000008
v -12.1841000000000008 -9.05552E-17 1.47887900000000008
v -11.80213 1.5 2.65444900000000008
v -12.1841000000000008 1.5 1.47887900000000008
v -11.80213 -1.625381E-16 2.65444900000000008
v -10.80213 -2.07026E-16 3.380992
v -10.80213 1.5 3.380992
v -11.80213 -1.625381E-16 2.65444900000000008
v -10.80213 1.5 3.380992
v -11.80213 1.5 2.65444900000000008
v -10.80213 -2.07026E-16 3.380992
v -9.56606200000000048 -2.07026E-16 3.380992
v -9.56606200000000048 1.5 3.380992
v -10.80213 -2.07026E-16 3.380992
v -9.56606200000000048 1.5 3.380992
v -10.80213 1.5 3.380992
v -9.56606200000000048 -2.07026E-16 3.380992
v -8.56606200000000048 -1.625381E-16 2.65444900000000008
v -8.56606200000000048 1.5 2.65444900000000008
v -9.56606200000000048 -2.07026E-16 3.380992
v -8.56606200000000048 1.5 2.65444900000000008
v -9.56606200000000048 1.5 3.380992
v -8.56606200000000048 -1.625381E-16 2.65444900000000008
v -8.18409600000000024 -9.05552E-17 1.47887900000000008
v -8.18409600000000024 1.5 1.47887900000000008
v -8.56606200000000048 -1.625381E-16 2.65444900000000008
v -8.18409600000000024 1.5 1.47887900000000008
v -8.56606200000000048 1.5 2.65444900000000008
v -8.18409600000000024 -9.05552E-17 1.47887900000000008
v -8.56606200000000048 -1.857227E-17 0.30330819999999996
v -8.56606200000000048 1.5 0.30330819999999996
v -8.18409600000000024 -9.05552E-17 1.47887900000000008
v -8.56606200000000048 1.5 0.30330819999999996
v -8.18409600000000024 1.5 1.47887900000000008
v -8.56606200000000048 -1.857227E-17 0.30330819999999996
v -9.56606200000000048 2.591563E-17 -0.4232344
v -9.56606200000000048 1.5 -0.4232344
v -8.56606200000000048 -1.857227E-17 0.30330819999999996
v -9.56606200000000048 1.5 -0.4232344
v -8.56606200000000048 1.5 0.30330819999999996
v -9.56606200000000048 2.591563E-17 -0.4232344
v -10.80213 2.591563E-17 -0.4232344
v -10.80213 1.5 -0.4232344
v -9.56606200000000048 2.591563E-17 -0.4232344
v -10.80213 1.5 -0.4232344
v -9.56606200000000048 1.5 -0.4232344
v -10.80213 2.591563E-17 -0.4232344
v -11.80213 -1.857227E-17 0.30330819999999996
v -11.80213 1.5 0.30330819999999996
v -10.80213 2.591563E-17 -0.4232344
v -11.80213 1.5 0.30330819999999996
v -10.80213 1.5 -0.4232344
v -11.80213 -1.857227E-17 0.30330819999999996
v -12.1841000000000008 -9.05552E-17 1.47887900000000008
v -12.1841000000000008 1.5 1.47887900000000008
v -11.80213 -1.857227E-17 0.30330819999999996
v -12.1841000000000008 1.5 1.47887900000000008
v -11.80213 1.5 0.30330819999999996
v -11.80213 -1.625381E-16 2.65444900000000008
v -12.1841000000000008 -9.05552E-17 1.47887900000000008
v -10.80213 -2.07026E-16 3.380992
v -12.1841000000000008 -9.05552E-17 1.47887900000000008
v -11.80213 -1.857227E-17 0.30330819999999996
v -10.80213 -2.07026E-16 3.380992
v -10.80213 -2.07026E-16 3.380992
v -11.80213 -1.857227E-17 0.30330819999999996
v -9.56606200000000048 -2.07026E-16 3.380992
v -11.80213 -1.857227E-17 0.30330819999999996
v -10.80213 2.591563E-17 -0.4232344
v -9.56606200000000048 -2.07026E-16 3.380992
v -9.56606200000000048 -2.07026E-16 3.380992
v -10.80213 2.591563E-17 -0.4232344
v -8.56606200000000048 -1.625381E-16 2.65444900000000008
v -10.80213 2.591563E-17 -0.4232344
v -9.56606200000000048 2.591563E-17 -0.4232344
v -8.56606200000000048 -1.625381E-16 2.65444900000000008
v -8.56606200000000048 -1.625381E-16 2.65444900000000008
v -9.56606200000000048 2.591563E-17 -0.4232344
v -8.18409600000000024 -9.05552E-17 1.47887900000000008
v -9.56606200000000048 2.591563E-17 -0.4232344
v -8.56606200000000048 -1.857227E-17 0.30330819999999996
v -8.18409600000000024 -9.05552E-17 1.47887900000000008
v -11.74793999999999984 1.75 2.615075
v -10.78143000000000032 1.75 3.3172830000000002
v -10.72488000000000064 1.93301300000000016 3.14322800000000014
v -11.74793999999999984 1.75 2.615075
v -10.72488000000000064 1.93301300000000016 3.14322800000000014
v -11.59988000000000064 1.93301300000000016 2.50750299999999984
v -10.78143000000000032 1.75 3.3172830000000002
v -9.58676200000000024 1.75 3.3172830000000002
v -9.64331600000000048 1.93301300000000016 3.14322800000000014
v -10.78143000000000032 1.75 3.3172830000000002
v -9.64331600000000048 1.93301300000000016 3.14322800000000014
v -10.72488000000000064 1.93301300000000016 3.14322800000000014
v -9.58676200000000024 1.75 3.3172830000000002
v -8.62025599999999944 1.75 2.615075
v -9.64331600000000048 1.93301300000000016 3.14322800000000014
v -9.64331600000000048 1.93301300000000016 3.14322800000000014
v -8.62025599999999944 1.75 2.615075
v -8.76831600000000048 1.93301300000000016 2.50750299999999984
v -8.62025599999999944 1.75 2.615075
v -8.25108299999999952 1.75 1.47887900000000008
v -8.76831600000000048 1.93301300000000016 2.50750299999999984
v -8.76831600000000048 1.93301300000000016 2.50750299999999984
v -8.25108299999999952 1.75 1.47887900000000008
v -8.43409600000000024 1.93301300000000016 1.47887900000000008
v -8.25108299999999952 1.75 1.47887900000000008
v -8.62025599999999944 1.75 0.3426823
v -8.76831600000000048 1.93301300000000016 0.4502545
v -8.25108299999999952 1.75 1.47887900000000008
v -8.76831600000000048 1.93301300000000016 0.4502545
v -8.43409600000000024 1.93301300000000016 1.47887900000000008
v -8.62025599999999944 1.75 0.3426823
v -9.58676200000000024 1.75 -0.3595257
v -9.64331600000000048 1.93301300000000016 -0.1854702
v -8.62025599999999944 1.75 0.3426823
v -9.64331600000000048 1.93301300000000016 -0.1854702
v -8.76831600000000048 1.93301300000000016 0.4502545
v -9.58676200000000024 1.75 -0.3595257
v -10.78143000000000032 1.75 -0.3595257
v -10.72488000000000064 1.93301300000000016 -0.1854702
v -9.58676200000000024 1.75 -0.3595257
v -10.72488000000000064 1.93301300000000016 -0.1854702
v -9.64331600000000048 1.93301300000000016 -0.1854702
v -10.78143000000000032 1.75 -0.3595257
v -11.74793999999999984 1.75 0.3426823
v -10.72488000000000064 1.93301300000000016 -0.1854702
v -10.72488000000000064 1.93301300000000016 -0.1854702
v -11.74793999999999984 1.75 0.3426823
v -11.59988000000000064 1.93301300000000016 0.4502545
v -12.11711000000000026 1.75 1.47887900000000008
v -12.1841000000000008 1.5 1.47887900000000008
v -11.80213 1.5 2.65444900000000008
v -11.80213 1.5 2.65444900000000008
v -10.80213 1.5 3.380992
v -11.74793999999999984 1.75 2.615075
v -10.80213 1.5 3.380992
v -9.56606200000000048 1.5 3.380992
v -10.78143000000000032 1.75 3.3172830000000002
v -9.56606200000000048 1.5 3.380992
v -8.56606200000000048 1.5 2.65444900000000008
v -9.58676200000000024 1.75 3.3172830000000002
v -8.56606200000000048 1.5 2.65444900000000008
v -8.18409600000000024 1.5 1.47887900000000008
v -8.62025599999999944 1.75 2.615075
v -8.18409600000000024 1.5 1.47887900000000008
v -8.56606200000000048 1.5 0.30330819999999996
v -8.25108299999999952 1.75 1.47887900000000008
v -8.56606200000000048 1.5 0.30330819999999996
v -9.56606200000000048 1.5 -0.4232344
v -8.62025599999999944 1.75 0.3426823
v -9.56606200000000048 1.5 -0.4232344
v -10.80213 1.5 -0.4232344
v -9.58676200000000024 1.75 -0.3595257
v -10.80213 1.5 -0.4232344
v -11.80213 1.5 0.30330819999999996
v -10.78143000000000032 1.75 -0.3595257
v -11.80213 1.5 0.30330819999999996
v -12.1841000000000008 1.5 1.47887900000000008
v -12.11711000000000026 1.75 1.47887900000000008
v -12.11711000000000026 1.75 1.47887900000000008
v -11.9341000000000008 1.93301300000000016 1.47887900000000008
v -11.74793999999999984 1.75 0.3426823
v -11.9341000000000008 1.93301300000000016 1.47887900000000008
v -11.6841000000000008 2 1.47887900000000008
v -11.39761999999999984 2 0.5972008
v -11.39761999999999984 2 0.5972008
v -10.64761999999999984 2 0.0522939
v -10.72488000000000064 1.93301300000000016 -0.1854702
v -10.64761999999999984 2 0.0522939
v -9.7205709999999996 2 0.0522939
v -9.64331600000000048 1.93301300000000016 -0.1854702
v -9.7205709999999996 2 0.0522939
v -8.97057099999999968 2 0.5972008
v -8.76831600000000048 1.93301300000000016 0.4502545
v -8.97057099999999968 2 0.5972008
v -8.68409600000000024 2 1.47887900000000008
v -8.43409600000000024 1.93301300000000016 1.47887900000000008
v -8.68409600000000024 2 1.47887900000000008
v -8.97057099999999968 2 2.360557
v -8.76831600000000048 1.93301300000000016 2.50750299999999984
v -8.97057099999999968 2 2.360557
v -9.7205709999999996 2 2.90546300000000016
v -9.64331600000000048 1.93301300000000016 3.14322800000000014
v -9.7205709999999996 2 2.90546300000000016
v -10.64761999999999984 2 2.90546300000000016
v -10.72488000000000064 1.93301300000000016 3.14322800000000014
v -10.64761999999999984 2 2.90546300000000016
v -11.39761999999999984 2 2.360557
v -11.59988000000000064 1.93301300000000016 2.50750299999999984
v -11.39761999999999984 2 2.360557
v -11.6841000000000008 2 1.47887900000000008
v -11.9341000000000008 1.93301300000000016 1.47887900000000008
v -11.9341000000000008 1.93301300000000016 1.47887900000000008
v -12.11711000000000026 1.75 1.47887900000000008
v -11.74793999999999984 1.75 2.615075
v -10.78143000000000032 1.75 3.3172830000000002
v -11.74793999999999984 1.75 2.615075
v -10.80213 1.5 3.380992
v -9.58676200000000024 1.75 3.3172830000000002
v -10.78143000000000032 1.75 3.3172830000000002
v -9.56606200000000048 1.5 3.380992
v -8.62025599999999944 1.75 2.615075
v -9.58676200000000024 1.75 3.3172830000000002
v -8.56606200000000048 1.5 2.65444900000000008
v -8.25108299999999952 1.75 1.47887900000000008
v -8.62025599999999944 1.75 2.615075
v -8.18409600000000024 1.5 1.47887900000000008
v -8.62025599999999944 1.75 0.3426823
v -8.25108299999999952 1.75 1.47887900000000008
v -8.56606200000000048 1.5 0.30330819999999996
v -9.58676200000000024 1.75 -0.3595257
v -8.62025599999999944 1.75 0.3426823
v -9.56606200000000048 1.5 -0.4232344
v -10.78143000000000032 1.75 -0.3595257
v -9.58676200000000024 1.75 -0.3595257
v -10.80213 1.5 -0.4232344
v -11.74793999999999984 1.75 2.615075
v -11.59988000000000064 1.93301300000000016 2.50750299999999984
v -11.9341000000000008 1.93301300000000016 1.47887900000000008
v -11.59988000000000064 1.93301300000000016 2.50750299999999984
v -10.72488000000000064 1.93301300000000016 3.14322800000000014
v -10.64761999999999984 2 2.90546300000000016
v -10.72488000000000064 1.93301300000000016 3.14322800000000014
v -9.64331600000000048 1.93301300000000016 3.14322800000000014
v -9.7205709999999996 2 2.90546300000000016
v -9.64331600000000048 1.93301300000000016 3.14322800000000014
v -8.76831600000000048 1.93301300000000016 2.50750299999999984
v -8.97057099999999968 2 2.360557
v -8.76831600000000048 1.93301300000000016 2.50750299999999984
v -8.43409600000000024 1.93301300000000016 1.47887900000000008
v -8.68409600000000024 2 1.47887900000000008
v -8.43409600000000024 1.93301300000000016 1.47887900000000008
v -8.76831600000000048 1.93301300000000016 0.4502545
v -8.97057099999999968 2 0.5972008
v -8.76831600000000048 1.93301300000000016 0.4502545
v -9.64331600000000048 1.93301300000000016 -0.1854702
v -9.7205709999999996 2 0.0522939
v -9.64331600000000048 1.93301300000000016 -0.1854702
v -10.72488000000000064 1.93301300000000016 -0.1854702
v -10.64761999999999984 2 0.0522939
v -11.74793999999999984 1.75 0.3426823
v -10.78143000000000032 1.75 -0.3595257
v -11.80213 1.5 0.30330819999999996
v -11.59988000000000064 1.93301300000000016 0.4502545
v -11.74793999999999984 1.75 0.3426823
v -11.9341000000000008 1.93301300000000016 1.47887900000000008
v -10.72488000000000064 1.93301300000000016 -0.1854702
v -11.59988000000000064 1.93301300000000016 0.4502545
v -11.39761999999999984 2 0.5972008
v -12.11711000000000026 1.75 1.47887900000000008
v -11.80213 1.5 2.65444900000000008
v -11.74793999999999984 1.75 2.615075
v -11.80213 1.5 0.30330819999999996
v -12.11711000000000026 1.75 1.47887900000000008
v -11.74793999999999984 1.75 0.3426823
v -11.9341000000000008 1.93301300000000016 1.47887900000000008
v -11.39761999999999984 2 0.5972008
v -11.59988000000000064 1.93301300000000016 0.4502545
v -11.59988000000000064 1.93301300000000016 2.50750299999999984
v -11.39761999999999984 2 2.360557
v -11.9341000000000008 1.93301300000000016 1.47887900000000008
v -11.39761999999999984 2 0.5972008
v -11.6841000000000008 2 1.47887900000000008
v -10.64761999999999984 2 0.0522939
v -11.6841000000000008 2 1.47887900000000008
v -11.39761999999999984 2 2.360557
v -10.64761999999999984 2 0.0522939
v -10.64761999999999984 2 0.0522939
v -11.39761999999999984 2 2.360557
v -9.7205709999999996 2 0.0522939
v -11.39761999999999984 2 2.360557
v -10.64761999999999984 2 2.90546300000000016
v -9.7205709999999996 2 0.0522939
v -9.7205709999999996 2 0.0522939
v -10.64761999999999984 2 2.90546300000000016
v -8.97057099999999968 2 0.5972008
v -10.64761999999999984 2 2.90546300000000016
v -9.7205709999999996 2 2.90546300000000016
v -8.97057099999999968 2 0.5972008
v -8.97057099999999968 2 0.5972008
v -9.7205709999999996 2 2.90546300000000016
v -8.68409600000000024 2 1.47887900000000008
v -9.7205709999999996 2 2.90546300000000016
v -8.97057099999999968 2 2.360557
v -8.68409600000000024 2 1.47887900000000008
# 288 vertices

vn -0.9510564 0 0.3090174
vn -0.9510564 0 0.3090174
vn -0.5877852 0 0.809017
vn -0.5877852 0 0.809017
vn 0 0 1
vn 0 0 1
vn 0.5877852 0 0.809017
vn 0.5877852 0 0.809017
vn 0.9510566 0 0.30901669999999996
vn 0.9510566 0 0.30901669999999996
vn 0.9510566 0 -0.30901669999999996
vn 0.9510566 0 -0.30901669999999996
vn 0.58778529999999992 0 -0.809017
vn 0.58778529999999992 0 -0.809017
vn 0 0 -1
vn 0 0 -1
vn -0.58778529999999992 0 -0.809017
vn -0.58778529999999992 0 -0.809017
vn -0.9510564 0 -0.3090174
vn -0.9510564 0 -0.3090174
vn -1.751512E-23 -1 -6.123233E-17
vn 6.915574E-25 -1 -6.123234E-17
vn 0 -1 -6.123234E-17
vn -3.567676E-25 -1 -6.123234E-17
vn 6.611147E-24 -1 -6.123234E-17
vn 0 -1 -6.123234E-17
vn -6.94594E-24 -1 -6.123234E-17
vn 1.140941E-24 -1 -6.123234E-17
vn -0.4259195 0.6891513 0.5862278
vn -0.4259195 0.6891513 0.5862278
vn 0 0.6891515 0.7246172
vn 0 0.6891515 0.7246172
vn 0.4259195 0.6891513 0.5862278
vn 0.4259195 0.6891513 0.5862278
vn 0.6891526 0.68915079999999992 0.2239195
vn 0.6891514 0.68915230000000008 0.2239186
vn 0.6891526 0.6891507 -0.2239196
vn 0.6891514 0.68915230000000008 -0.2239186
vn 0.4259195 0.6891514 -0.5862277
vn 0.4259196 0.6891511 -0.586228
vn 0 0.6891517 -0.7246171
vn 0 0.6891517 -0.7246171
vn -0.4259195 0.6891514 -0.5862277
vn -0.4259196 0.6891511 -0.586228
vn -0.9216025 0.2469417 0.29944720000000004
vn -0.5695817 0.2469417 0.783962
vn 0 0.2469429 0.96903
vn 0.5695815 0.2469434 0.7839617
vn 0.921602 0.2469446 0.2994463
vn 0.9216027 0.2469417 -0.2994466
vn 0.5695814 0.2469439 -0.7839616
vn 0 0.2469427 -0.9690301
vn -0.5695818 0.2469411 -0.7839621
vn -0.9216025 0.2469417 -0.29944730000000004
vn -0.6891513 0.6891522 -0.2239191
vn -0.2579086 0.9625283 -0.08379950999999999
vn -0.1593963 0.9625283 -0.2193901
vn 0 0.9625283 -0.2711811
vn 0.1593963 0.9625283 -0.2193901
vn 0.2579086 0.9625283 -0.08379950999999999
vn 0.2579086 0.9625283 0.08379950999999999
vn 0.1593963 0.9625283 0.2193901
vn 0 0.9625283 0.2711812
vn -0.1593963 0.9625283 0.2193902
vn -0.2579086 0.9625283 0.08379949
vn -0.6891513 0.6891522 0.2239191
vn -0.5695818 0.2469413 0.7839621
vn 0 0.2469429 0.96903
vn 0.5695815 0.2469438 0.7839615
vn 0.9216025 0.2469417 0.29944720000000004
vn 0.9216018 0.2469447 -0.299447
vn 0.5695816 0.2469432 -0.7839616
vn 0 0.2469427 -0.9690301
vn -0.6891528 0.6891507 0.2239191
vn -0.1593963 0.9625283 0.2193901
vn 0 0.9625283 0.2711812
vn 0.1593963 0.9625283 0.2193902
vn 0.2579086 0.9625283 0.0837995
vn 0.2579086 0.9625283 -0.0837995
vn 0.1593963 0.9625283 -0.2193901
vn 0 0.9625283 -0.2711811
vn -0.5695818 0.2469418 -0.7839619
vn -0.68915289999999992 0.68915059999999992 -0.2239191
vn -0.1593963 0.9625283 -0.2193901
vn -0.9216026 0.2469413 0.29944720000000004
vn -0.9216026 0.2469414 -0.29944720000000004
vn -0.2579086 0.9625283 -0.0837995
vn -0.2579086 0.9625283 0.08379952
vn 0 1 0
vn 0 1 0
vn 0 1 0
vn 0 1 0
vn 0 1 0
vn 0 1 0
vn 0 1 0
vn 0 1 0
# 96 vertex normals

g obj_54522384
s 1
f 1//1 2//1 3//1
f 4//2 5//2 6//2
f 7//3 8//3 9//3
f 10//4 11//4 12//4
f 13//5 14//5 15//5
f 16//6 17//6 18//6
f 19//7 20//7 21//7
f 22//8 23//8 24//8
f 25//9 26//9 27//9
f 28//10 29//10 30//10
f 31//11 32//11 33//11
f 34//12 35//12 36//12
f 37//13 38//13 39//13
f 40//14 41//14 42//14
f 43//15 44//15 45//15
f 46//16 47//16 48//16
f 49//17 50//17 51//17
f 52//18 53//18 54//18
f 55//19 56//19 57//19
f 58//20 59//20 60//20
f 61//21 62//21 63//21
f 64//22 65//22 66//22
f 67//23 68//23 69//23
f 70//24 71//24 72//24
f 73//25 74//25 75//25
f 76//26 77//26 78//26
f 79//27 80//27 81//27
f 82//28 83//28 84//28
f 85//29 86//29 87//29
f 88//30 89//30 90//30
f 91//31 92//31 93//31
f 94//32 95//32 96//32
f 97//33 98//33 99//33
f 100//34 101//34 102//34
f 103//35 104//35 105//35
f 106//36 107//36 108//36
f 109//37 110//37 111//37
f 112//38 113//38 114//38
f 115//39 116//39 117//39
f 118//40 119//40 120//40
f 121//41 122//41 123//41
f 124//42 125//42 126//42
f 127//43 128//43 129//43
f 130//44 131//44 132//44
f 133//45 134//45 135//45
f 136//46 137//46 138//46
f 139//47 140//47 141//47
f 142//48 143//48 144//48
f 145//49 146//49 147//49
f 148//50 149//50 150//50
f 151//51 152//51 153//51
f 154//52 155//52 156//52
f 157//53 158//53 159//53
f 160//54 161//54 162//54
f 163//55 164//55 165//55
f 166//56 167//56 168//56
f 169//57 170//57 171//57
f 172//58 173//58 174//58
f 175//59 176//59 177//59
f 178//60 179//60 180//60
f 181//61 182//61 183//61
f 184//62 185//62 186//62
f 187//63 188//63 189//63
f 190//64 191//64 192//64
f 193//65 194//65 195//65
f 196//66 197//66 198//66
f 199//67 200//67 201//67
f 202//68 203//68 204//68
f 205//69 206//69 207//69
f 208//70 209//70 210//70
f 211//71 212//71 213//71
f 214//72 215//72 216//72
f 217//73 218//73 219//73
f 220//74 221//74 222//74
f 223//75 224//75 225//75
f 226//76 227//76 228//76
f 229//77 230//77 231//77
f 232//78 233//78 234//78
f 235//79 236//79 237//79
f 238//80 239//80 240//80
f 241//81 242//81 243//81
f 244//82 245//82 246//82
f 247//83 248//83 249//83
f 250//84 251//84 252//84
f 253//85 254//85 255//85
f 256//86 257//86 258//86
f 259//87 260//87 261//87
f 262//88 263//88 264//88
f 265//89 266//89 267//89
f 268//90 269//90 270//90
f 271//91 272//91 273//91
f 274//92 275//92 276//92
f 277//93 278//93 279//93
f 280//94 281//94 282//94
f 283//95 284//95 285//95
f 286//96 287//96 288//96
#96 polygons

